<svg version="1.2" xmlns="http://www.w3.org/2000/svg" viewBox="0 0 165 40" width="165" height="40"><style>.a{fill:#1b1a1c}.b{fill:#fed71f}</style><path fill-rule="evenodd" class="a" d="m0.7 9.9h10.4c4.9 0 8.3 3.1 8.3 7.6 0 4.5-3.5 7.6-8.3 7.6h-4.3v6.5h-6.1zm9.9 9.6c1.5 0 2.5-0.9 2.5-2 0-1.2-1-2-2.5-2h-3.8v4z"/><path fill-rule="evenodd" class="a" d="m21.1 20.8c0-6.1 5.4-11.2 11.8-11.2 6.4 0 11.8 5.1 11.8 11.2 0 6.1-5.4 11.2-11.8 11.2-6.4 0-11.8-5.2-11.8-11.2zm17.3 0c0-3.1-2.5-5.6-5.5-5.6-3 0-5.5 2.6-5.5 5.6 0 3.1 2.5 5.7 5.5 5.7 3 0 5.5-2.7 5.5-5.7z"/><path class="a" d="m64 26.1v5.5h-16.3v-21.7h6.1v16.2z"/><path class="a" d="m72.8 15.4v2.4h10.3v5.5h-10.3v2.8h11.3v5.5h-17.5v-21.7h17.5v5.5z"/><path class="a" d="m85.6 28.3l3.4-4.1c2.2 1.7 4.6 2.7 7.2 2.7 1.7 0 2.6-0.6 2.6-1.5 0-1-0.8-1.2-3.8-1.9-4.7-1.1-8.4-2.3-8.4-6.8 0-4.3 3.4-7.1 8.6-7.1 3.8 0 6.7 1 9.1 2.9l-3.1 4.3c-2-1.5-4.2-2.2-6.2-2.2-1.5 0-2.2 0.6-2.2 1.4 0 1.1 0.8 1.5 3.9 2.1 5.1 1.1 8.2 2.4 8.2 6.6 0 4.6-3.5 7.3-9 7.3-3.8 0-7.6-1.2-10.3-3.7z"/><path class="a" d="m113 15.4h-6.5v-5.5h19v5.5h-6.4v16.2h-6.1z"/><path fill-rule="evenodd" class="a" d="m158 31.6l-4.6-6.5h-1.9v6.5h-6.1v-21.7h10.4c4.9 0 8.3 3.1 8.3 7.6 0 3.1-1.6 5.5-4.3 6.8l5.2 7.4h-7zm-6.5-12.1h3.8c1.5 0 2.5-0.9 2.5-2 0-1.2-1-2-2.5-2h-3.8z"/><path class="b" d="m134 0l-5 15.3h-16.1l13.1 9.4-5 15.3 13-9.4 13.1 9.4-5-15.3 13-9.2-16.1-0.2z"/></svg>